<svg width="326" height="234" viewBox="0 0 215 234" fill="none" xmlns="http://www.w3.org/2000/svg">
<g filter="url(#filter0_i_19_150)">
<path d="M214 44C214 44 189.213 52.2254 165.604 64.4541L116.245 42.5283C114.91 40.4482 111.945 39 108.5 39C103.806 39 100 41.6863 100 45C100 48.3137 103.806 51 108.5 51C111.158 51 113.53 50.137 115.089 48.7881L157.765 68.6885L158.083 68.5205C150.698 72.696 143.72 77.2348 138 82C125.161 92.6972 108.5 113 108.5 113C108.5 113 93.0186 93.3994 81 83C55.2463 60.716 3 44 3 44L108.5 0L214 44Z" fill="#E86C24"/>
</g>
<g filter="url(#filter1_i_19_150)">
<circle cx="165" cy="91.5" r="9" fill="#E86C24"/>
</g>
<path d="M163.5 71L166.5 73.5V83.5H163.5V71Z" fill="#E86C24"/>
<path d="M162 103.619C162 103.619 161.359 103.348 161 103.079C160.546 102.74 160 102 160 102L159 136.5L162 134.921V103.619Z" fill="#E86C24"/>
<path d="M168 103.619C168 103.619 168.641 103.348 169 103.079C169.454 102.74 170 102 170 102L171 136.5L168 134.921V103.619Z" fill="#E86C24"/>
<path d="M163.5 104C163.5 104 164.383 104.5 165 104.5C165.617 104.5 166.5 104 166.5 104L167 137L165 138L163 137L163.5 104Z" fill="#E86C24"/>
<g filter="url(#filter2_i_19_150)">
<path d="M55 75C55 75 70.6743 85.6059 77 95.5C83.3257 105.394 86.5 128.5 86.5 128.5C86.5 128.5 75.3133 125.671 69.5 123.5C63.6867 121.329 55 117 55 117V75Z" fill="#E86C24"/>
</g>
<rect y="208" width="211" height="1.2" fill="#D9D9D9"/>
<g filter="url(#filter3_i_19_150)">
<path d="M132.36 159.127H145.648C149.366 159.127 152.135 159.976 153.956 161.674C155.776 163.357 156.687 166.111 156.687 169.936C156.687 172.552 156.327 174.702 155.608 176.385C154.889 178.052 153.673 179.292 151.959 180.103C150.261 180.913 147.935 181.319 144.982 181.319H139.176V193H132.36V159.127ZM146.061 176.339C147.208 176.339 148.088 176.117 148.7 175.673C149.312 175.23 149.733 174.556 149.962 173.654C150.192 172.751 150.307 171.627 150.307 170.28C150.307 169.087 150.192 168.016 149.962 167.067C149.748 166.119 149.35 165.369 148.769 164.818C148.188 164.252 147.361 163.969 146.291 163.969H139.176V176.339H146.061ZM160.671 159.127H181.164V164.336H167.486V173.562H180.223V178.45H167.486V193H160.671V159.127ZM185.263 159.127H207.455V164.268H192.056V173.264H205.711V178.175H192.056V187.859H207.707V193H185.263V159.127Z" fill="white"/>
</g>
<g filter="url(#filter4_i_19_150)">
<path d="M4.36035 193V159.127H11.8647L21.9165 176.431H20.9756L31.0044 159.127H38.6465V193H32.2666V166.93L32.7715 167.067L23.7983 183.155H19.2314L9.93701 167.159L10.7402 167.021V193H4.36035ZM59.3375 193.597C56.2929 193.597 53.7914 193.283 51.8331 192.656C49.8748 192.028 48.3525 191.164 47.2662 190.062C46.1799 188.961 45.415 187.676 44.9713 186.207C44.5429 184.738 44.3287 183.17 44.3287 181.502V170.9C44.3287 169.186 44.5429 167.588 44.9713 166.104C45.3997 164.604 46.157 163.288 47.2433 162.156C48.3295 161.024 49.8518 160.144 51.8102 159.517C53.7685 158.875 56.2776 158.553 59.3375 158.553C62.2597 158.553 64.6617 158.89 66.5436 159.563C68.4407 160.236 69.9171 161.162 70.9728 162.34C72.0437 163.503 72.7857 164.849 73.1988 166.379C73.6272 167.909 73.8414 169.531 73.8414 171.244V181.135C73.8414 182.803 73.6272 184.386 73.1988 185.886C72.7704 187.37 72.0208 188.693 70.9498 189.856C69.8941 191.019 68.4254 191.937 66.5436 192.61C64.6617 193.268 62.2597 193.597 59.3375 193.597ZM59.3375 188.25C61.051 188.25 62.4739 188.074 63.6061 187.722C64.7382 187.37 65.5873 186.758 66.1534 185.886C66.7195 185.014 67.0025 183.805 67.0025 182.26V169.982C67.0025 168.467 66.7195 167.266 66.1534 166.379C65.5873 165.492 64.7306 164.857 63.5831 164.474C62.4509 164.092 61.0357 163.9 59.3375 163.9C57.6546 163.9 56.2011 164.084 54.9771 164.451C53.7532 164.818 52.8123 165.446 52.1544 166.333C51.4965 167.22 51.1676 168.437 51.1676 169.982V182.26C51.1676 183.805 51.4889 185.014 52.1314 185.886C52.7893 186.758 53.7302 187.37 54.9542 187.722C56.1782 188.074 57.6393 188.25 59.3375 188.25ZM79.5236 159.127H84.6413L102.863 183.178L102.243 183.384V159.127H108.302V193H103.184L85.0314 169.316L85.6511 169.11V193H79.5236V159.127Z" fill="white"/>
</g>
<path d="M152 142V143.2H0V142H152ZM211 143.2H178V142H211V143.2Z" fill="#D9D9D9"/>
<g filter="url(#filter5_i_19_150)">
<path d="M52.6 225.02C52.6 224.7 52.6267 224.36 52.68 224C52.7467 223.627 52.84 223.233 52.96 222.82C53.0933 222.393 53.2533 221.947 53.44 221.48L54.88 222.04C54.7467 222.413 54.6267 222.767 54.52 223.1C54.4267 223.433 54.3533 223.747 54.3 224.04C54.26 224.333 54.24 224.613 54.24 224.88C54.24 225.44 54.36 225.913 54.6 226.3C54.8533 226.7 55.2 227.027 55.64 227.28C56.08 227.533 56.58 227.72 57.14 227.84C57.7133 227.96 58.32 228.02 58.96 228.02C59.7333 228.02 60.4533 227.953 61.12 227.82C61.8 227.687 62.3933 227.493 62.9 227.24C63.42 227 63.8267 226.72 64.12 226.4C64.4133 226.093 64.56 225.76 64.56 225.4C64.56 225.227 64.4933 225.067 64.36 224.92C64.2267 224.773 64.0267 224.633 63.76 224.5C63.4933 224.367 63.1733 224.24 62.8 224.12C62.4267 223.987 62 223.853 61.52 223.72L61.9 222.06C62.5933 222.327 63.2067 222.553 63.74 222.74C64.2733 222.913 64.74 223.053 65.14 223.16C65.54 223.267 65.8867 223.347 66.18 223.4C66.4733 223.44 66.72 223.46 66.92 223.46C67.2 223.46 67.4 223.54 67.52 223.7C67.6533 223.847 67.72 224.027 67.72 224.24C67.72 224.453 67.6267 224.653 67.44 224.84C67.2533 225.013 67.0133 225.1 66.72 225.1C66.64 225.1 66.56 225.1 66.48 225.1C66.4 225.1 66.3133 225.1 66.22 225.1C66.14 225.1 66.06 225.1 65.98 225.1C66.0067 225.22 66.0267 225.313 66.04 225.38C66.0533 225.46 66.06 225.56 66.06 225.68C66.06 226.173 65.8867 226.653 65.54 227.12C65.2067 227.587 64.7133 228.007 64.06 228.38C63.4067 228.767 62.6133 229.073 61.68 229.3C60.76 229.527 59.7067 229.64 58.52 229.64C57.4667 229.64 56.4867 229.467 55.58 229.12C54.6867 228.787 53.9667 228.28 53.42 227.6C52.8733 226.92 52.6 226.06 52.6 225.02ZM59.96 233.42C59.68 233.42 59.44 233.32 59.24 233.12C59.0533 232.933 58.96 232.707 58.96 232.44C58.96 232.173 59.0533 231.94 59.24 231.74C59.44 231.54 59.68 231.44 59.96 231.44C60.2267 231.44 60.4533 231.54 60.64 231.74C60.84 231.94 60.94 232.173 60.94 232.44C60.94 232.707 60.84 232.933 60.64 233.12C60.4533 233.32 60.2267 233.42 59.96 233.42ZM57.22 233.42C56.94 233.42 56.7 233.32 56.5 233.12C56.3133 232.933 56.22 232.707 56.22 232.44C56.22 232.173 56.3133 231.94 56.5 231.74C56.7 231.54 56.94 231.44 57.22 231.44C57.4867 231.44 57.7133 231.54 57.9 231.74C58.1 231.94 58.2 232.173 58.2 232.44C58.2 232.707 58.1 232.933 57.9 233.12C57.7133 233.32 57.4867 233.42 57.22 233.42ZM65.7266 225.1L65.9266 223.46H71.3266C71.6066 223.46 71.8066 223.54 71.9266 223.7C72.0599 223.847 72.1266 224.027 72.1266 224.24C72.1266 224.453 72.0332 224.653 71.8466 224.84C71.6599 225.013 71.4199 225.1 71.1266 225.1H65.7266ZM70.1172 225.1L70.3172 223.46H75.7172C75.9972 223.46 76.1972 223.54 76.3172 223.7C76.4505 223.847 76.5172 224.027 76.5172 224.24C76.5172 224.453 76.4239 224.653 76.2372 224.84C76.0505 225.013 75.8105 225.1 75.5172 225.1H70.1172ZM74.5078 225.1L74.7078 223.46H80.1078C80.3878 223.46 80.5878 223.54 80.7078 223.7C80.8411 223.847 80.9078 224.027 80.9078 224.24C80.9078 224.453 80.8145 224.653 80.6278 224.84C80.4411 225.013 80.2011 225.1 79.9078 225.1H74.5078ZM78.8984 225.1L79.0984 223.46C79.9384 223.46 80.5851 223.453 81.0384 223.44C81.5051 223.427 81.8451 223.413 82.0584 223.4C82.2718 223.373 82.4184 223.36 82.4984 223.36C82.2584 223.227 81.9784 223.02 81.6584 222.74C81.3384 222.447 81.0584 222.08 80.8184 221.64C80.5784 221.187 80.4584 220.653 80.4584 220.04C80.4584 219.28 80.6318 218.613 80.9784 218.04C81.3384 217.467 81.8251 217.02 82.4384 216.7C83.0651 216.38 83.7784 216.22 84.5784 216.22C84.8851 216.22 85.2118 216.247 85.5584 216.3C85.9051 216.353 86.2384 216.433 86.5584 216.54L86.2184 218.08C85.9518 218.013 85.6718 217.96 85.3784 217.92C85.0851 217.88 84.8184 217.86 84.5784 217.86C84.0984 217.86 83.6718 217.953 83.2984 218.14C82.9251 218.313 82.6318 218.56 82.4184 218.88C82.2051 219.2 82.0984 219.587 82.0984 220.04C82.0984 220.387 82.1718 220.707 82.3184 221C82.4651 221.28 82.6584 221.533 82.8984 221.76C83.1384 221.987 83.4051 222.173 83.6984 222.32C83.9918 222.467 84.2784 222.58 84.5584 222.66C84.8518 222.74 85.1118 222.773 85.3384 222.76C85.4984 222.707 85.6451 222.66 85.7784 222.62C85.9118 222.58 86.0584 222.533 86.2184 222.48C86.3918 222.413 86.5984 222.327 86.8384 222.22C87.0918 222.113 87.4118 221.973 87.7984 221.8L88.3584 223.26C87.4651 223.62 86.5518 223.94 85.6184 224.22C84.6984 224.5 83.6918 224.72 82.5984 224.88C81.5184 225.027 80.2851 225.1 78.8984 225.1ZM89.117 229.6L88.757 227.96C89.557 227.853 90.2904 227.7 90.957 227.5C91.637 227.313 92.217 227.04 92.697 226.68C93.1904 226.32 93.5704 225.847 93.837 225.26C94.1037 224.673 94.237 223.94 94.237 223.06C94.237 222.647 94.197 222.253 94.117 221.88C94.037 221.493 93.917 221.153 93.757 220.86C93.597 220.567 93.4037 220.333 93.177 220.16C92.9637 219.987 92.717 219.9 92.437 219.9C92.1304 219.9 91.8504 220.02 91.597 220.26C91.357 220.487 91.1637 220.78 91.017 221.14C90.8837 221.5 90.817 221.86 90.817 222.22C90.817 222.5 90.8704 222.747 90.977 222.96C91.097 223.16 91.2904 223.313 91.557 223.42C91.8237 223.527 92.1704 223.58 92.597 223.58C92.9837 223.58 93.3704 223.54 93.757 223.46C94.157 223.38 94.497 223.273 94.777 223.14L94.857 224.54C94.537 224.767 94.157 224.927 93.717 225.02C93.2904 225.113 92.857 225.16 92.417 225.16C91.9104 225.16 91.457 225.107 91.057 225C90.6704 224.893 90.337 224.74 90.057 224.54C89.7904 224.327 89.5837 224.06 89.437 223.74C89.3037 223.42 89.237 223.047 89.237 222.62C89.237 222.113 89.317 221.607 89.477 221.1C89.637 220.58 89.8637 220.107 90.157 219.68C90.4504 219.253 90.8037 218.913 91.217 218.66C91.6304 218.393 92.0904 218.26 92.597 218.26C93.1304 218.26 93.597 218.4 93.997 218.68C94.397 218.947 94.7304 219.313 94.997 219.78C95.2637 220.247 95.4637 220.773 95.597 221.36C95.7304 221.947 95.797 222.553 95.797 223.18C95.797 224.42 95.5437 225.487 95.037 226.38C94.5437 227.287 93.797 228.007 92.797 228.54C91.8104 229.073 90.5837 229.427 89.117 229.6ZM95.9823 229.64L95.4023 228.12C96.3757 227.8 97.1823 227.433 97.8223 227.02C98.4757 226.607 98.989 226.167 99.3623 225.7C99.749 225.233 100.022 224.76 100.182 224.28C100.342 223.787 100.422 223.313 100.422 222.86C100.422 222.207 100.276 221.547 99.9823 220.88C99.7023 220.2 99.389 219.56 99.0423 218.96L100.502 218.22C100.756 218.687 100.976 219.147 101.162 219.6C101.362 220.053 101.536 220.48 101.682 220.88C101.842 221.28 101.969 221.647 102.062 221.98C102.249 222.553 102.489 222.947 102.782 223.16C103.089 223.36 103.502 223.46 104.022 223.46C104.302 223.46 104.502 223.54 104.622 223.7C104.756 223.847 104.822 224.027 104.822 224.24C104.822 224.453 104.729 224.653 104.542 224.84C104.356 225.013 104.116 225.1 103.822 225.1C103.236 225.1 102.756 225 102.382 224.8C102.022 224.587 101.749 224.313 101.562 223.98C101.376 223.633 101.249 223.273 101.182 222.9L101.822 223.26C101.822 224.14 101.622 224.94 101.222 225.66C100.836 226.393 100.336 227.027 99.7223 227.56C99.109 228.107 98.469 228.553 97.8023 228.9C97.1357 229.247 96.529 229.493 95.9823 229.64ZM102.832 225.1L103.032 223.46H108.432C108.712 223.46 108.912 223.54 109.032 223.7C109.165 223.847 109.232 224.027 109.232 224.24C109.232 224.453 109.139 224.653 108.952 224.84C108.765 225.013 108.525 225.1 108.232 225.1H102.832ZM107.223 225.1L107.423 223.46H112.823C113.103 223.46 113.303 223.54 113.423 223.7C113.556 223.847 113.623 224.027 113.623 224.24C113.623 224.453 113.529 224.653 113.343 224.84C113.156 225.013 112.916 225.1 112.623 225.1H107.223ZM111.613 225.1L111.813 223.46H117.213C117.493 223.46 117.693 223.54 117.813 223.7C117.947 223.847 118.013 224.027 118.013 224.24C118.013 224.453 117.92 224.653 117.733 224.84C117.547 225.013 117.307 225.1 117.013 225.1H111.613ZM116.004 225.1L116.204 223.46C116.631 223.46 116.977 223.433 117.244 223.38C117.511 223.313 117.731 223.16 117.904 222.92C118.091 222.667 118.264 222.273 118.424 221.74C118.584 221.207 118.771 220.46 118.984 219.5L120.484 219.92C120.404 220.253 120.311 220.653 120.204 221.12C120.097 221.587 120.044 222.013 120.044 222.4C120.044 222.613 120.097 222.8 120.204 222.96C120.311 223.12 120.491 223.247 120.744 223.34C121.011 223.42 121.364 223.46 121.804 223.46C122.204 223.46 122.531 223.427 122.784 223.36C123.037 223.293 123.244 223.133 123.404 222.88C123.577 222.627 123.731 222.22 123.864 221.66C123.997 221.1 124.137 220.333 124.284 219.36L125.804 219.64C125.764 219.88 125.717 220.173 125.664 220.52C125.611 220.867 125.557 221.213 125.504 221.56C125.464 221.893 125.444 222.173 125.444 222.4C125.444 222.587 125.484 222.767 125.564 222.94C125.657 223.1 125.831 223.227 126.084 223.32C126.351 223.413 126.744 223.46 127.264 223.46C127.931 223.46 128.411 223.32 128.704 223.04C129.011 222.76 129.164 222.333 129.164 221.76C129.164 221.453 129.157 221.133 129.144 220.8C129.131 220.453 129.104 220.073 129.064 219.66C129.037 219.233 128.991 218.747 128.924 218.2L130.384 218.1C130.464 219.18 130.551 220.067 130.644 220.76C130.751 221.453 130.897 222 131.084 222.4C131.284 222.787 131.551 223.06 131.884 223.22C132.217 223.38 132.657 223.46 133.204 223.46C133.484 223.46 133.684 223.54 133.804 223.7C133.937 223.847 134.004 224.027 134.004 224.24C134.004 224.453 133.911 224.653 133.724 224.84C133.537 225.013 133.297 225.1 133.004 225.1C132.551 225.1 132.144 225.04 131.784 224.92C131.437 224.787 131.131 224.613 130.864 224.4C130.611 224.173 130.397 223.92 130.224 223.64C130.064 223.347 129.951 223.04 129.884 222.72L130.244 222.84C130.097 223.44 129.864 223.907 129.544 224.24C129.237 224.56 128.871 224.787 128.444 224.92C128.017 225.04 127.564 225.1 127.084 225.1C126.497 225.1 126.017 225.027 125.644 224.88C125.271 224.733 124.977 224.513 124.764 224.22C124.564 223.913 124.431 223.527 124.364 223.06H125.044C124.791 223.633 124.524 224.067 124.244 224.36C123.964 224.653 123.617 224.853 123.204 224.96C122.791 225.053 122.244 225.1 121.564 225.1C121.231 225.1 120.871 225.047 120.484 224.94C120.111 224.833 119.784 224.627 119.504 224.32C119.224 224 119.057 223.527 119.004 222.9L119.604 222.78C119.377 223.46 119.097 223.967 118.764 224.3C118.444 224.62 118.057 224.833 117.604 224.94C117.151 225.047 116.617 225.1 116.004 225.1ZM124.624 214.1C124.344 214.1 124.104 214.007 123.904 213.82C123.717 213.62 123.624 213.387 123.624 213.12C123.624 212.853 123.717 212.62 123.904 212.42C124.104 212.22 124.344 212.12 124.624 212.12C124.891 212.12 125.117 212.22 125.304 212.42C125.504 212.62 125.604 212.853 125.604 213.12C125.604 213.387 125.504 213.62 125.304 213.82C125.117 214.007 124.891 214.1 124.624 214.1ZM123.264 216.3C122.984 216.3 122.744 216.207 122.544 216.02C122.357 215.82 122.264 215.587 122.264 215.32C122.264 215.053 122.357 214.82 122.544 214.62C122.744 214.42 122.984 214.32 123.264 214.32C123.531 214.32 123.757 214.42 123.944 214.62C124.144 214.82 124.244 215.053 124.244 215.32C124.244 215.587 124.144 215.82 123.944 216.02C123.757 216.207 123.531 216.3 123.264 216.3ZM125.984 216.3C125.704 216.3 125.464 216.207 125.264 216.02C125.077 215.82 124.984 215.587 124.984 215.32C124.984 215.053 125.077 214.82 125.264 214.62C125.464 214.42 125.704 214.32 125.984 214.32C126.251 214.32 126.477 214.42 126.664 214.62C126.864 214.82 126.964 215.053 126.964 215.32C126.964 215.587 126.864 215.82 126.664 216.02C126.477 216.207 126.251 216.3 125.984 216.3ZM131.996 225.1L132.196 223.46H137.596C137.876 223.46 138.076 223.54 138.196 223.7C138.329 223.847 138.396 224.027 138.396 224.24C138.396 224.453 138.303 224.653 138.116 224.84C137.929 225.013 137.689 225.1 137.396 225.1H131.996ZM136.387 225.1L136.587 223.46H141.987C142.267 223.46 142.467 223.54 142.587 223.7C142.72 223.847 142.787 224.027 142.787 224.24C142.787 224.453 142.693 224.653 142.507 224.84C142.32 225.013 142.08 225.1 141.787 225.1H136.387ZM140.777 225.1L140.977 223.46H146.377C146.657 223.46 146.857 223.54 146.977 223.7C147.111 223.847 147.177 224.027 147.177 224.24C147.177 224.453 147.084 224.653 146.897 224.84C146.711 225.013 146.471 225.1 146.177 225.1H140.777ZM145.168 225.1L145.368 223.46C145.741 223.46 146.055 223.38 146.308 223.22C146.561 223.06 146.808 222.793 147.048 222.42C147.288 222.047 147.548 221.547 147.828 220.92C148.215 220.067 148.595 219.42 148.968 218.98C149.355 218.54 149.735 218.24 150.108 218.08C150.495 217.92 150.875 217.84 151.248 217.84C151.701 217.84 152.121 217.96 152.508 218.2C152.895 218.427 153.235 218.733 153.528 219.12C153.821 219.507 154.048 219.933 154.208 220.4C154.381 220.853 154.468 221.307 154.468 221.76C154.468 222.56 154.328 223.2 154.048 223.68C153.768 224.147 153.408 224.487 152.968 224.7C152.541 224.9 152.095 225 151.628 225C151.215 225 150.681 224.92 150.028 224.76C149.388 224.6 148.575 224.193 147.588 223.54L148.368 222.28C149.021 222.693 149.608 222.98 150.128 223.14C150.661 223.287 151.101 223.36 151.448 223.36C151.835 223.36 152.141 223.307 152.368 223.2C152.595 223.08 152.761 222.913 152.868 222.7C152.975 222.487 153.028 222.247 153.028 221.98C153.028 221.593 152.935 221.207 152.748 220.82C152.561 220.433 152.321 220.113 152.028 219.86C151.748 219.607 151.448 219.48 151.128 219.48C150.888 219.48 150.655 219.547 150.428 219.68C150.201 219.813 149.968 220.06 149.728 220.42C149.488 220.78 149.215 221.3 148.908 221.98C148.588 222.7 148.281 223.273 147.988 223.7C147.708 224.113 147.421 224.42 147.128 224.62C146.835 224.82 146.528 224.947 146.208 225C145.901 225.067 145.555 225.1 145.168 225.1Z" fill="white"/>
</g>
<defs>
<filter id="filter0_i_19_150" x="3" y="0" width="211" height="117" filterUnits="userSpaceOnUse" color-interpolation-filters="sRGB">
<feFlood flood-opacity="0" result="BackgroundImageFix"/>
<feBlend mode="normal" in="SourceGraphic" in2="BackgroundImageFix" result="shape"/>
<feColorMatrix in="SourceAlpha" type="matrix" values="0 0 0 0 0 0 0 0 0 0 0 0 0 0 0 0 0 0 127 0" result="hardAlpha"/>
<feOffset dy="4"/>
<feGaussianBlur stdDeviation="2"/>
<feComposite in2="hardAlpha" operator="arithmetic" k2="-1" k3="1"/>
<feColorMatrix type="matrix" values="0 0 0 0 1 0 0 0 0 1 0 0 0 0 1 0 0 0 0.25 0"/>
<feBlend mode="normal" in2="shape" result="effect1_innerShadow_19_150"/>
</filter>
<filter id="filter1_i_19_150" x="156" y="82.5" width="18" height="22" filterUnits="userSpaceOnUse" color-interpolation-filters="sRGB">
<feFlood flood-opacity="0" result="BackgroundImageFix"/>
<feBlend mode="normal" in="SourceGraphic" in2="BackgroundImageFix" result="shape"/>
<feColorMatrix in="SourceAlpha" type="matrix" values="0 0 0 0 0 0 0 0 0 0 0 0 0 0 0 0 0 0 127 0" result="hardAlpha"/>
<feOffset dy="4"/>
<feGaussianBlur stdDeviation="2"/>
<feComposite in2="hardAlpha" operator="arithmetic" k2="-1" k3="1"/>
<feColorMatrix type="matrix" values="0 0 0 0 1 0 0 0 0 1 0 0 0 0 1 0 0 0 0.25 0"/>
<feBlend mode="normal" in2="shape" result="effect1_innerShadow_19_150"/>
</filter>
<filter id="filter2_i_19_150" x="55" y="75" width="31.5" height="57.5" filterUnits="userSpaceOnUse" color-interpolation-filters="sRGB">
<feFlood flood-opacity="0" result="BackgroundImageFix"/>
<feBlend mode="normal" in="SourceGraphic" in2="BackgroundImageFix" result="shape"/>
<feColorMatrix in="SourceAlpha" type="matrix" values="0 0 0 0 0 0 0 0 0 0 0 0 0 0 0 0 0 0 127 0" result="hardAlpha"/>
<feOffset dy="4"/>
<feGaussianBlur stdDeviation="2"/>
<feComposite in2="hardAlpha" operator="arithmetic" k2="-1" k3="1"/>
<feColorMatrix type="matrix" values="0 0 0 0 1 0 0 0 0 1 0 0 0 0 1 0 0 0 0.25 0"/>
<feBlend mode="normal" in2="shape" result="effect1_innerShadow_19_150"/>
</filter>
<filter id="filter3_i_19_150" x="132.36" y="159.127" width="75.3469" height="37.873" filterUnits="userSpaceOnUse" color-interpolation-filters="sRGB">
<feFlood flood-opacity="0" result="BackgroundImageFix"/>
<feBlend mode="normal" in="SourceGraphic" in2="BackgroundImageFix" result="shape"/>
<feColorMatrix in="SourceAlpha" type="matrix" values="0 0 0 0 0 0 0 0 0 0 0 0 0 0 0 0 0 0 127 0" result="hardAlpha"/>
<feOffset dy="4"/>
<feGaussianBlur stdDeviation="2"/>
<feComposite in2="hardAlpha" operator="arithmetic" k2="-1" k3="1"/>
<feColorMatrix type="matrix" values="0 0 0 0 0.0666667 0 0 0 0 0.0705882 0 0 0 0 0.172549 0 0 0 0.56 0"/>
<feBlend mode="normal" in2="shape" result="effect1_innerShadow_19_150"/>
</filter>
<filter id="filter4_i_19_150" x="4.36035" y="158.553" width="103.942" height="39.0435" filterUnits="userSpaceOnUse" color-interpolation-filters="sRGB">
<feFlood flood-opacity="0" result="BackgroundImageFix"/>
<feBlend mode="normal" in="SourceGraphic" in2="BackgroundImageFix" result="shape"/>
<feColorMatrix in="SourceAlpha" type="matrix" values="0 0 0 0 0 0 0 0 0 0 0 0 0 0 0 0 0 0 127 0" result="hardAlpha"/>
<feOffset dy="4"/>
<feGaussianBlur stdDeviation="2"/>
<feComposite in2="hardAlpha" operator="arithmetic" k2="-1" k3="1"/>
<feColorMatrix type="matrix" values="0 0 0 0 0.0666667 0 0 0 0 0.0705882 0 0 0 0 0.172549 0 0 0 0.56 0"/>
<feBlend mode="normal" in2="shape" result="effect1_innerShadow_19_150"/>
</filter>
<filter id="filter5_i_19_150" x="52.6" y="212.12" width="101.868" height="25.3" filterUnits="userSpaceOnUse" color-interpolation-filters="sRGB">
<feFlood flood-opacity="0" result="BackgroundImageFix"/>
<feBlend mode="normal" in="SourceGraphic" in2="BackgroundImageFix" result="shape"/>
<feColorMatrix in="SourceAlpha" type="matrix" values="0 0 0 0 0 0 0 0 0 0 0 0 0 0 0 0 0 0 127 0" result="hardAlpha"/>
<feOffset dy="4"/>
<feGaussianBlur stdDeviation="2"/>
<feComposite in2="hardAlpha" operator="arithmetic" k2="-1" k3="1"/>
<feColorMatrix type="matrix" values="0 0 0 0 0.0666667 0 0 0 0 0.0705882 0 0 0 0 0.172549 0 0 0 0.23 0"/>
<feBlend mode="normal" in2="shape" result="effect1_innerShadow_19_150"/>
</filter>
</defs>
</svg>