<?xml version="1.0" encoding="UTF-8" standalone="no"?>
<svg
   width="215"
   height="237.42"
   viewBox="0 0 141.79448 237.42"
   fill="none"
   version="1.1"
   id="svg21"
   sodipodi:docname="logo.svg"
   inkscape:version="1.4.2 (f4327f4, 2025-05-13)"
   xmlns:inkscape="http://www.inkscape.org/namespaces/inkscape"
   xmlns:sodipodi="http://sodipodi.sourceforge.net/DTD/sodipodi-0.dtd"
   xmlns="http://www.w3.org/2000/svg"
   xmlns:svg="http://www.w3.org/2000/svg">
  <sodipodi:namedview
     id="namedview21"
     pagecolor="#ffffff"
     bordercolor="#000000"
     borderopacity="0.25"
     inkscape:showpageshadow="2"
     inkscape:pageopacity="0.0"
     inkscape:pagecheckerboard="0"
     inkscape:deskcolor="#d1d1d1"
     inkscape:zoom="3.3461538"
     inkscape:cx="107.28736"
     inkscape:cy="116.70115"
     inkscape:window-width="1920"
     inkscape:window-height="1001"
     inkscape:window-x="-9"
     inkscape:window-y="-9"
     inkscape:window-maximized="1"
     inkscape:current-layer="svg21" />
  <g
     filter="url(#filter0_i_19_150)"
     id="g1"
     transform="translate(-36.971264,2.6896552)">
    <path
       d="m 214,44 c 0,0 -24.787,8.2254 -48.396,20.4541 L 116.245,42.5283 C 114.91,40.4482 111.945,39 108.5,39 c -4.694,0 -8.5,2.6863 -8.5,6 0,3.3137 3.806,6 8.5,6 2.658,0 5.03,-0.863 6.589,-2.2119 l 42.676,19.9004 0.318,-0.168 C 150.698,72.696 143.72,77.2348 138,82 125.161,92.6972 108.5,113 108.5,113 108.5,113 93.0186,93.3994 81,83 55.2463,60.716 3,44 3,44 L 108.5,0 Z"
       fill="#e86c24"
       id="path1" />
  </g>
  <g
     filter="url(#filter1_i_19_150)"
     id="g2"
     transform="translate(-38.465517,2.3908046)">
    <circle
       cx="165"
       cy="91.5"
       r="9"
       fill="#e86c24"
       id="circle1" />
  </g>
  <path
     d="m 125.03448,73.390805 3,2.5 v 10 h -3 z"
     fill="#e86c24"
     id="path2" />
  <path
     d="m 123.53448,106.0098 c 0,0 -0.641,-0.271 -1,-0.54 -0.454,-0.339 -1,-1.079 -1,-1.079 l -1,34.5 3,-1.579 z"
     fill="#e86c24"
     id="path3" />
  <path
     d="m 129.53448,106.0098 c 0,0 0.641,-0.271 1,-0.54 0.454,-0.339 1,-1.079 1,-1.079 l 1,34.5 -3,-1.579 z"
     fill="#e86c24"
     id="path4" />
  <path
     d="m 125.03448,106.3908 c 0,0 0.883,0.5 1.5,0.5 0.617,0 1.5,-0.5 1.5,-0.5 l 0.5,33 -2,1 -2,-1 z"
     fill="#e86c24"
     id="path5" />
  <g
     filter="url(#filter2_i_19_150)"
     id="g6"
     transform="translate(-38.465517,2.3908046)">
    <path
       d="m 55,75 c 0,0 15.6743,10.6059 22,20.5 6.3257,9.894 9.5,33 9.5,33 0,0 -11.1867,-2.829 -17,-5 C 63.6867,121.329 55,117 55,117 Z"
       fill="#e86c24"
       id="path6" />
  </g>
  <rect
     y="210.39081"
     width="211"
     height="1.2"
     fill="#d9d9d9"
     id="rect6"
     x="-34.879307" />
  <g
     filter="url(#filter3_i_19_150)"
     id="g7"
     transform="translate(-38.465517,2.3908046)">
    <path
       d="m 136.24506,159.127 h 13.288 c 3.718,0 6.487,0.849 8.308,2.547 1.82,1.683 2.731,4.437 2.731,8.262 0,2.616 -0.36,4.766 -1.079,6.449 -0.719,1.667 -1.935,2.907 -3.649,3.718 -1.698,0.81 -4.024,1.216 -6.977,1.216 h -5.806 V 193 h -6.816 z m 13.701,17.212 c 1.147,0 2.027,-0.222 2.639,-0.666 0.612,-0.443 1.033,-1.117 1.262,-2.019 0.23,-0.903 0.345,-2.027 0.345,-3.374 0,-1.193 -0.115,-2.264 -0.345,-3.213 -0.214,-0.948 -0.612,-1.698 -1.193,-2.249 -0.581,-0.566 -1.408,-0.849 -2.478,-0.849 h -7.115 v 12.37 z m 14.61,-17.212 h 20.493 v 5.209 h -13.678 v 9.226 h 12.737 v 4.888 h -12.737 V 193 h -6.815 z m 24.592,0 h 22.192 v 5.141 h -15.399 v 8.996 h 13.655 v 4.911 h -13.655 v 9.684 h 15.651 V 193 h -22.444 z"
       fill="#ffffff"
       id="path7" />
  </g>
  <g
     filter="url(#filter4_i_19_150)"
     id="g8"
     transform="translate(-33.683908,2.6896552)">
    <path
       d="m 4.36035,193 v -33.873 h 7.50435 l 10.0518,17.304 h -0.9409 l 10.0288,-17.304 h 7.6421 V 193 h -6.3799 v -26.07 l 0.5049,0.137 -8.9732,16.088 H 19.2314 L 9.93701,167.159 10.7402,167.021 V 193 Z m 54.97715,0.597 c -3.0446,0 -5.5461,-0.314 -7.5044,-0.941 -1.9583,-0.628 -3.4806,-1.492 -4.5669,-2.594 -1.0863,-1.101 -1.8512,-2.386 -2.2949,-3.855 -0.4284,-1.469 -0.6426,-3.037 -0.6426,-4.705 V 170.9 c 0,-1.714 0.2142,-3.312 0.6426,-4.796 0.4284,-1.5 1.1857,-2.816 2.272,-3.948 1.0862,-1.132 2.6085,-2.012 4.5669,-2.639 1.9583,-0.642 4.4674,-0.964 7.5273,-0.964 2.9222,0 5.3242,0.337 7.2061,1.01 1.8971,0.673 3.3735,1.599 4.4292,2.777 1.0709,1.163 1.8129,2.509 2.226,4.039 0.4284,1.53 0.6426,3.152 0.6426,4.865 v 9.891 c 0,1.668 -0.2142,3.251 -0.6426,4.751 -0.4284,1.484 -1.178,2.807 -2.249,3.97 -1.0557,1.163 -2.5244,2.081 -4.4062,2.754 -1.8819,0.658 -4.2839,0.987 -7.2061,0.987 z m 0,-5.347 c 1.7135,0 3.1364,-0.176 4.2686,-0.528 1.1321,-0.352 1.9812,-0.964 2.5473,-1.836 0.5661,-0.872 0.8491,-2.081 0.8491,-3.626 v -12.278 c 0,-1.515 -0.283,-2.716 -0.8491,-3.603 -0.5661,-0.887 -1.4228,-1.522 -2.5703,-1.905 -1.1322,-0.382 -2.5474,-0.574 -4.2456,-0.574 -1.6829,0 -3.1364,0.184 -4.3604,0.551 -1.2239,0.367 -2.1648,0.995 -2.8227,1.882 -0.6579,0.887 -0.9868,2.104 -0.9868,3.649 v 12.278 c 0,1.545 0.3213,2.754 0.9638,3.626 0.6579,0.872 1.5988,1.484 2.8228,1.836 1.224,0.352 2.6851,0.528 4.3833,0.528 z m 20.1861,-29.123 h 5.1177 l 18.2217,24.051 -0.62,0.206 v -24.257 h 6.059 V 193 h -5.118 L 85.0314,169.316 85.6511,169.11 V 193 h -6.1275 z"
       fill="#ffffff"
       id="path8" />
  </g>
  <path
     d="m 117.71839,144.3908 v 1.2 H -34.281609 v -1.2 z m 59,1.2 h -33 v -1.2 h 33 z"
     fill="#d9d9d9"
     id="path9" />
  <g
     filter="url(#filter5_i_19_150)"
     id="g10"
     transform="matrix(1.0997459,0,0,1,-43.712154,2.3908046)">
    <path
       d="m 52.6,225.02 c 0,-0.32 0.0267,-0.66 0.08,-1.02 0.0667,-0.373 0.16,-0.767 0.28,-1.18 0.1333,-0.427 0.2933,-0.873 0.48,-1.34 l 1.44,0.56 c -0.1333,0.373 -0.2533,0.727 -0.36,1.06 -0.0933,0.333 -0.1667,0.647 -0.22,0.94 -0.04,0.293 -0.06,0.573 -0.06,0.84 0,0.56 0.12,1.033 0.36,1.42 0.2533,0.4 0.6,0.727 1.04,0.98 0.44,0.253 0.94,0.44 1.5,0.56 0.5733,0.12 1.18,0.18 1.82,0.18 0.7733,0 1.4933,-0.067 2.16,-0.2 0.68,-0.133 1.2733,-0.327 1.78,-0.58 0.52,-0.24 0.9267,-0.52 1.22,-0.84 0.2933,-0.307 0.44,-0.64 0.44,-1 0,-0.173 -0.0667,-0.333 -0.2,-0.48 -0.1333,-0.147 -0.3333,-0.287 -0.6,-0.42 -0.2667,-0.133 -0.5867,-0.26 -0.96,-0.38 -0.3733,-0.133 -0.8,-0.267 -1.28,-0.4 l 0.38,-1.66 c 0.6933,0.267 1.3067,0.493 1.84,0.68 0.5333,0.173 1,0.313 1.4,0.42 0.4,0.107 0.7467,0.187 1.04,0.24 0.2933,0.04 0.54,0.06 0.74,0.06 0.28,0 0.48,0.08 0.6,0.24 0.1333,0.147 0.2,0.327 0.2,0.54 0,0.213 -0.0933,0.413 -0.28,0.6 -0.1867,0.173 -0.4267,0.26 -0.72,0.26 -0.08,0 -0.16,0 -0.24,0 -0.08,0 -0.1667,0 -0.26,0 -0.08,0 -0.16,0 -0.24,0 0.0267,0.12 0.0467,0.213 0.06,0.28 0.0133,0.08 0.02,0.18 0.02,0.3 0,0.493 -0.1733,0.973 -0.52,1.44 -0.3333,0.467 -0.8267,0.887 -1.48,1.26 -0.6533,0.387 -1.4467,0.693 -2.38,0.92 -0.92,0.227 -1.9733,0.34 -3.16,0.34 -1.0533,0 -2.0333,-0.173 -2.94,-0.52 -0.8933,-0.333 -1.6133,-0.84 -2.16,-1.52 -0.5467,-0.68 -0.82,-1.54 -0.82,-2.58 z m 7.36,8.4 c -0.28,0 -0.52,-0.1 -0.72,-0.3 -0.1867,-0.187 -0.28,-0.413 -0.28,-0.68 0,-0.267 0.0933,-0.5 0.28,-0.7 0.2,-0.2 0.44,-0.3 0.72,-0.3 0.2667,0 0.4933,0.1 0.68,0.3 0.2,0.2 0.3,0.433 0.3,0.7 0,0.267 -0.1,0.493 -0.3,0.68 -0.1867,0.2 -0.4133,0.3 -0.68,0.3 z m -2.74,0 c -0.28,0 -0.52,-0.1 -0.72,-0.3 -0.1867,-0.187 -0.28,-0.413 -0.28,-0.68 0,-0.267 0.0933,-0.5 0.28,-0.7 0.2,-0.2 0.44,-0.3 0.72,-0.3 0.2667,0 0.4933,0.1 0.68,0.3 0.2,0.2 0.3,0.433 0.3,0.7 0,0.267 -0.1,0.493 -0.3,0.68 -0.1867,0.2 -0.4133,0.3 -0.68,0.3 z m 8.5066,-8.32 0.2,-1.64 h 5.4 c 0.28,0 0.48,0.08 0.6,0.24 0.1333,0.147 0.2,0.327 0.2,0.54 0,0.213 -0.0934,0.413 -0.28,0.6 -0.1867,0.173 -0.4267,0.26 -0.72,0.26 z m 4.3906,0 0.2,-1.64 h 5.4 c 0.28,0 0.48,0.08 0.6,0.24 0.1333,0.147 0.2,0.327 0.2,0.54 0,0.213 -0.0933,0.413 -0.28,0.6 -0.1867,0.173 -0.4267,0.26 -0.72,0.26 z m 4.3906,0 0.2,-1.64 h 5.4 c 0.28,0 0.48,0.08 0.6,0.24 0.1333,0.147 0.2,0.327 0.2,0.54 0,0.213 -0.0933,0.413 -0.28,0.6 -0.1867,0.173 -0.4267,0.26 -0.72,0.26 z m 4.3906,0 0.2,-1.64 c 0.84,0 1.4867,-0.007 1.94,-0.02 0.4667,-0.013 0.8067,-0.027 1.02,-0.04 0.2134,-0.027 0.36,-0.04 0.44,-0.04 -0.24,-0.133 -0.52,-0.34 -0.84,-0.62 -0.32,-0.293 -0.6,-0.66 -0.84,-1.1 -0.24,-0.453 -0.36,-0.987 -0.36,-1.6 0,-0.76 0.1734,-1.427 0.52,-2 0.36,-0.573 0.8467,-1.02 1.46,-1.34 0.6267,-0.32 1.34,-0.48 2.14,-0.48 0.3067,0 0.6334,0.027 0.98,0.08 0.3467,0.053 0.68,0.133 1,0.24 l -0.34,1.54 c -0.2666,-0.067 -0.5466,-0.12 -0.84,-0.16 -0.2933,-0.04 -0.56,-0.06 -0.8,-0.06 -0.48,0 -0.9066,0.093 -1.28,0.28 -0.3733,0.173 -0.6666,0.42 -0.88,0.74 -0.2133,0.32 -0.32,0.707 -0.32,1.16 0,0.347 0.0734,0.667 0.22,0.96 0.1467,0.28 0.34,0.533 0.58,0.76 0.24,0.227 0.5067,0.413 0.8,0.56 0.2934,0.147 0.58,0.26 0.86,0.34 0.2934,0.08 0.5534,0.113 0.78,0.1 0.16,-0.053 0.3067,-0.1 0.44,-0.14 0.1334,-0.04 0.28,-0.087 0.44,-0.14 0.1734,-0.067 0.38,-0.153 0.62,-0.26 0.2534,-0.107 0.5734,-0.247 0.96,-0.42 l 0.56,1.46 c -0.8933,0.36 -1.8066,0.68 -2.74,0.96 -0.92,0.28 -1.9266,0.5 -3.02,0.66 -1.08,0.147 -2.3133,0.22 -3.7,0.22 z m 10.2186,4.5 -0.36,-1.64 c 0.8,-0.107 1.5334,-0.26 2.2,-0.46 0.68,-0.187 1.26,-0.46 1.74,-0.82 0.4934,-0.36 0.8734,-0.833 1.14,-1.42 0.2667,-0.587 0.4,-1.32 0.4,-2.2 0,-0.413 -0.04,-0.807 -0.12,-1.18 -0.08,-0.387 -0.2,-0.727 -0.36,-1.02 -0.16,-0.293 -0.3533,-0.527 -0.58,-0.7 -0.2133,-0.173 -0.46,-0.26 -0.74,-0.26 -0.3066,0 -0.5866,0.12 -0.84,0.36 -0.24,0.227 -0.4333,0.52 -0.58,0.88 -0.1333,0.36 -0.2,0.72 -0.2,1.08 0,0.28 0.0534,0.527 0.16,0.74 0.12,0.2 0.3134,0.353 0.58,0.46 0.2667,0.107 0.6134,0.16 1.04,0.16 0.3867,0 0.7734,-0.04 1.16,-0.12 0.4,-0.08 0.74,-0.187 1.02,-0.32 l 0.08,1.4 c -0.32,0.227 -0.7,0.387 -1.14,0.48 -0.4266,0.093 -0.86,0.14 -1.3,0.14 -0.5066,0 -0.96,-0.053 -1.36,-0.16 -0.3866,-0.107 -0.72,-0.26 -1,-0.46 -0.2666,-0.213 -0.4733,-0.48 -0.62,-0.8 -0.1333,-0.32 -0.2,-0.693 -0.2,-1.12 0,-0.507 0.08,-1.013 0.24,-1.52 0.16,-0.52 0.3867,-0.993 0.68,-1.42 0.2934,-0.427 0.6467,-0.767 1.06,-1.02 0.4134,-0.267 0.8734,-0.4 1.38,-0.4 0.5334,0 1,0.14 1.4,0.42 0.4,0.267 0.7334,0.633 1,1.1 0.2667,0.467 0.4667,0.993 0.6,1.58 0.1334,0.587 0.2,1.193 0.2,1.82 0,1.24 -0.2533,2.307 -0.76,3.2 -0.4933,0.907 -1.24,1.627 -2.24,2.16 -0.9866,0.533 -2.2133,0.887 -3.68,1.06 z m 6.8653,0.04 -0.58,-1.52 c 0.9734,-0.32 1.78,-0.687 2.42,-1.1 0.6534,-0.413 1.1667,-0.853 1.54,-1.32 0.3867,-0.467 0.6597,-0.94 0.8197,-1.42 0.16,-0.493 0.24,-0.967 0.24,-1.42 0,-0.653 -0.146,-1.313 -0.4397,-1.98 -0.28,-0.68 -0.5933,-1.32 -0.94,-1.92 l 1.4597,-0.74 c 0.254,0.467 0.474,0.927 0.66,1.38 0.2,0.453 0.374,0.88 0.52,1.28 0.16,0.4 0.287,0.767 0.38,1.1 0.187,0.573 0.427,0.967 0.72,1.18 0.307,0.2 0.72,0.3 1.24,0.3 0.28,0 0.48,0.08 0.6,0.24 0.134,0.147 0.2,0.327 0.2,0.54 0,0.213 -0.093,0.413 -0.28,0.6 -0.186,0.173 -0.426,0.26 -0.72,0.26 -0.586,0 -1.066,-0.1 -1.44,-0.3 -0.36,-0.213 -0.633,-0.487 -0.82,-0.82 -0.186,-0.347 -0.313,-0.707 -0.38,-1.08 l 0.64,0.36 c 0,0.88 -0.2,1.68 -0.6,2.4 -0.386,0.733 -0.886,1.367 -1.4997,1.9 -0.6133,0.547 -1.2533,0.993 -1.92,1.34 -0.6666,0.347 -1.2733,0.593 -1.82,0.74 z m 6.8497,-4.54 0.2,-1.64 h 5.4 c 0.28,0 0.48,0.08 0.6,0.24 0.133,0.147 0.2,0.327 0.2,0.54 0,0.213 -0.093,0.413 -0.28,0.6 -0.187,0.173 -0.427,0.26 -0.72,0.26 z m 4.391,0 0.2,-1.64 h 5.4 c 0.28,0 0.48,0.08 0.6,0.24 0.133,0.147 0.2,0.327 0.2,0.54 0,0.213 -0.094,0.413 -0.28,0.6 -0.187,0.173 -0.427,0.26 -0.72,0.26 z m 4.39,0 0.2,-1.64 h 5.4 c 0.28,0 0.48,0.08 0.6,0.24 0.134,0.147 0.2,0.327 0.2,0.54 0,0.213 -0.093,0.413 -0.28,0.6 -0.186,0.173 -0.426,0.26 -0.72,0.26 z m 4.391,0 0.2,-1.64 c 0.427,0 0.773,-0.027 1.04,-0.08 0.267,-0.067 0.487,-0.22 0.66,-0.46 0.187,-0.253 0.36,-0.647 0.52,-1.18 0.16,-0.533 0.347,-1.28 0.56,-2.24 l 1.5,0.42 c -0.08,0.333 -0.173,0.733 -0.28,1.2 -0.107,0.467 -0.16,0.893 -0.16,1.28 0,0.213 0.053,0.4 0.16,0.56 0.107,0.16 0.287,0.287 0.54,0.38 0.267,0.08 0.62,0.12 1.06,0.12 0.4,0 0.727,-0.033 0.98,-0.1 0.253,-0.067 0.46,-0.227 0.62,-0.48 0.173,-0.253 0.327,-0.66 0.46,-1.22 0.133,-0.56 0.273,-1.327 0.42,-2.3 l 1.52,0.28 c -0.04,0.24 -0.087,0.533 -0.14,0.88 -0.053,0.347 -0.107,0.693 -0.16,1.04 -0.04,0.333 -0.06,0.613 -0.06,0.84 0,0.187 0.04,0.367 0.12,0.54 0.093,0.16 0.267,0.287 0.52,0.38 0.267,0.093 0.66,0.14 1.18,0.14 0.667,0 1.147,-0.14 1.44,-0.42 0.307,-0.28 0.46,-0.707 0.46,-1.28 0,-0.307 -0.007,-0.627 -0.02,-0.96 -0.013,-0.347 -0.04,-0.727 -0.08,-1.14 -0.027,-0.427 -0.073,-0.913 -0.14,-1.46 l 1.46,-0.1 c 0.08,1.08 0.167,1.967 0.26,2.66 0.107,0.693 0.253,1.24 0.44,1.64 0.2,0.387 0.467,0.66 0.8,0.82 0.333,0.16 0.773,0.24 1.32,0.24 0.28,0 0.48,0.08 0.6,0.24 0.133,0.147 0.2,0.327 0.2,0.54 0,0.213 -0.093,0.413 -0.28,0.6 -0.187,0.173 -0.427,0.26 -0.72,0.26 -0.453,0 -0.86,-0.06 -1.22,-0.18 -0.347,-0.133 -0.653,-0.307 -0.92,-0.52 -0.253,-0.227 -0.467,-0.48 -0.64,-0.76 -0.16,-0.293 -0.273,-0.6 -0.34,-0.92 l 0.36,0.12 c -0.147,0.6 -0.38,1.067 -0.7,1.4 -0.307,0.32 -0.673,0.547 -1.1,0.68 -0.427,0.12 -0.88,0.18 -1.36,0.18 -0.587,0 -1.067,-0.073 -1.44,-0.22 -0.373,-0.147 -0.667,-0.367 -0.88,-0.66 -0.2,-0.307 -0.333,-0.693 -0.4,-1.16 h 0.68 c -0.253,0.573 -0.52,1.007 -0.8,1.3 -0.28,0.293 -0.627,0.493 -1.04,0.6 -0.413,0.093 -0.96,0.14 -1.64,0.14 -0.333,0 -0.693,-0.053 -1.08,-0.16 -0.373,-0.107 -0.7,-0.313 -0.98,-0.62 -0.28,-0.32 -0.447,-0.793 -0.5,-1.42 l 0.6,-0.12 c -0.227,0.68 -0.507,1.187 -0.84,1.52 -0.32,0.32 -0.707,0.533 -1.16,0.64 -0.453,0.107 -0.987,0.16 -1.6,0.16 z m 8.62,-11 c -0.28,0 -0.52,-0.093 -0.72,-0.28 -0.187,-0.2 -0.28,-0.433 -0.28,-0.7 0,-0.267 0.093,-0.5 0.28,-0.7 0.2,-0.2 0.44,-0.3 0.72,-0.3 0.267,0 0.493,0.1 0.68,0.3 0.2,0.2 0.3,0.433 0.3,0.7 0,0.267 -0.1,0.5 -0.3,0.7 -0.187,0.187 -0.413,0.28 -0.68,0.28 z m -1.36,2.2 c -0.28,0 -0.52,-0.093 -0.72,-0.28 -0.187,-0.2 -0.28,-0.433 -0.28,-0.7 0,-0.267 0.093,-0.5 0.28,-0.7 0.2,-0.2 0.44,-0.3 0.72,-0.3 0.267,0 0.493,0.1 0.68,0.3 0.2,0.2 0.3,0.433 0.3,0.7 0,0.267 -0.1,0.5 -0.3,0.7 -0.187,0.187 -0.413,0.28 -0.68,0.28 z m 2.72,0 c -0.28,0 -0.52,-0.093 -0.72,-0.28 -0.187,-0.2 -0.28,-0.433 -0.28,-0.7 0,-0.267 0.093,-0.5 0.28,-0.7 0.2,-0.2 0.44,-0.3 0.72,-0.3 0.267,0 0.493,0.1 0.68,0.3 0.2,0.2 0.3,0.433 0.3,0.7 0,0.267 -0.1,0.5 -0.3,0.7 -0.187,0.187 -0.413,0.28 -0.68,0.28 z m 6.012,8.8 0.2,-1.64 h 5.4 c 0.28,0 0.48,0.08 0.6,0.24 0.133,0.147 0.2,0.327 0.2,0.54 0,0.213 -0.093,0.413 -0.28,0.6 -0.187,0.173 -0.427,0.26 -0.72,0.26 z m 4.391,0 0.2,-1.64 h 5.4 c 0.28,0 0.48,0.08 0.6,0.24 0.133,0.147 0.2,0.327 0.2,0.54 0,0.213 -0.094,0.413 -0.28,0.6 -0.187,0.173 -0.427,0.26 -0.72,0.26 z m 4.39,0 0.2,-1.64 h 5.4 c 0.28,0 0.48,0.08 0.6,0.24 0.134,0.147 0.2,0.327 0.2,0.54 0,0.213 -0.093,0.413 -0.28,0.6 -0.186,0.173 -0.426,0.26 -0.72,0.26 z m 4.391,0 0.2,-1.64 c 0.373,0 0.687,-0.08 0.94,-0.24 0.253,-0.16 0.5,-0.427 0.74,-0.8 0.24,-0.373 0.5,-0.873 0.78,-1.5 0.387,-0.853 0.767,-1.5 1.14,-1.94 0.387,-0.44 0.767,-0.74 1.14,-0.9 0.387,-0.16 0.767,-0.24 1.14,-0.24 0.453,0 0.873,0.12 1.26,0.36 0.387,0.227 0.727,0.533 1.02,0.92 0.293,0.387 0.52,0.813 0.68,1.28 0.173,0.453 0.26,0.907 0.26,1.36 0,0.8 -0.14,1.44 -0.42,1.92 -0.28,0.467 -0.64,0.807 -1.08,1.02 -0.427,0.2 -0.873,0.3 -1.34,0.3 -0.413,0 -0.947,-0.08 -1.6,-0.24 -0.64,-0.16 -1.453,-0.567 -2.44,-1.22 l 0.78,-1.26 c 0.653,0.413 1.24,0.7 1.76,0.86 0.533,0.147 0.973,0.22 1.32,0.22 0.387,0 0.693,-0.053 0.92,-0.16 0.227,-0.12 0.393,-0.287 0.5,-0.5 0.107,-0.213 0.16,-0.453 0.16,-0.72 0,-0.387 -0.093,-0.773 -0.28,-1.16 -0.187,-0.387 -0.427,-0.707 -0.72,-0.96 -0.28,-0.253 -0.58,-0.38 -0.9,-0.38 -0.24,0 -0.473,0.067 -0.7,0.2 -0.227,0.133 -0.46,0.38 -0.7,0.74 -0.24,0.36 -0.513,0.88 -0.82,1.56 -0.32,0.72 -0.627,1.293 -0.92,1.72 -0.28,0.413 -0.567,0.72 -0.86,0.92 -0.293,0.2 -0.6,0.327 -0.92,0.38 -0.307,0.067 -0.653,0.1 -1.04,0.1 z"
       fill="#ffffff"
       id="path10" />
  </g>
  <defs
     id="defs21">
    <filter
       id="filter0_i_19_150"
       x="3"
       y="0"
       width="211"
       height="117"
       filterUnits="userSpaceOnUse"
       color-interpolation-filters="sRGB">
      <feFlood
         flood-opacity="0"
         result="BackgroundImageFix"
         id="feFlood10" />
      <feBlend
         mode="normal"
         in="SourceGraphic"
         in2="BackgroundImageFix"
         result="shape"
         id="feBlend10" />
      <feColorMatrix
         in="SourceAlpha"
         type="matrix"
         values="0 0 0 0 0 0 0 0 0 0 0 0 0 0 0 0 0 0 127 0"
         result="hardAlpha"
         id="feColorMatrix10" />
      <feOffset
         dy="4"
         id="feOffset10" />
      <feGaussianBlur
         stdDeviation="2"
         id="feGaussianBlur10" />
      <feComposite
         in2="hardAlpha"
         operator="arithmetic"
         k2="-1"
         k3="1"
         id="feComposite10"
         k1="0"
         k4="0" />
      <feColorMatrix
         type="matrix"
         values="0 0 0 0 1 0 0 0 0 1 0 0 0 0 1 0 0 0 0.25 0"
         id="feColorMatrix11" />
      <feBlend
         mode="normal"
         in2="shape"
         result="effect1_innerShadow_19_150"
         id="feBlend11" />
    </filter>
    <filter
       id="filter1_i_19_150"
       x="156"
       y="82.5"
       width="18"
       height="22"
       filterUnits="userSpaceOnUse"
       color-interpolation-filters="sRGB">
      <feFlood
         flood-opacity="0"
         result="BackgroundImageFix"
         id="feFlood11" />
      <feBlend
         mode="normal"
         in="SourceGraphic"
         in2="BackgroundImageFix"
         result="shape"
         id="feBlend12" />
      <feColorMatrix
         in="SourceAlpha"
         type="matrix"
         values="0 0 0 0 0 0 0 0 0 0 0 0 0 0 0 0 0 0 127 0"
         result="hardAlpha"
         id="feColorMatrix12" />
      <feOffset
         dy="4"
         id="feOffset12" />
      <feGaussianBlur
         stdDeviation="2"
         id="feGaussianBlur12" />
      <feComposite
         in2="hardAlpha"
         operator="arithmetic"
         k2="-1"
         k3="1"
         id="feComposite12"
         k1="0"
         k4="0" />
      <feColorMatrix
         type="matrix"
         values="0 0 0 0 1 0 0 0 0 1 0 0 0 0 1 0 0 0 0.25 0"
         id="feColorMatrix13" />
      <feBlend
         mode="normal"
         in2="shape"
         result="effect1_innerShadow_19_150"
         id="feBlend13" />
    </filter>
    <filter
       id="filter2_i_19_150"
       x="55"
       y="75"
       width="31.5"
       height="57.5"
       filterUnits="userSpaceOnUse"
       color-interpolation-filters="sRGB">
      <feFlood
         flood-opacity="0"
         result="BackgroundImageFix"
         id="feFlood13" />
      <feBlend
         mode="normal"
         in="SourceGraphic"
         in2="BackgroundImageFix"
         result="shape"
         id="feBlend14" />
      <feColorMatrix
         in="SourceAlpha"
         type="matrix"
         values="0 0 0 0 0 0 0 0 0 0 0 0 0 0 0 0 0 0 127 0"
         result="hardAlpha"
         id="feColorMatrix14" />
      <feOffset
         dy="4"
         id="feOffset14" />
      <feGaussianBlur
         stdDeviation="2"
         id="feGaussianBlur14" />
      <feComposite
         in2="hardAlpha"
         operator="arithmetic"
         k2="-1"
         k3="1"
         id="feComposite14"
         k1="0"
         k4="0" />
      <feColorMatrix
         type="matrix"
         values="0 0 0 0 1 0 0 0 0 1 0 0 0 0 1 0 0 0 0.25 0"
         id="feColorMatrix15" />
      <feBlend
         mode="normal"
         in2="shape"
         result="effect1_innerShadow_19_150"
         id="feBlend15" />
    </filter>
    <filter
       id="filter3_i_19_150"
       x="132.36"
       y="159.127"
       width="75.346901"
       height="37.873001"
       filterUnits="userSpaceOnUse"
       color-interpolation-filters="sRGB">
      <feFlood
         flood-opacity="0"
         result="BackgroundImageFix"
         id="feFlood15" />
      <feBlend
         mode="normal"
         in="SourceGraphic"
         in2="BackgroundImageFix"
         result="shape"
         id="feBlend16" />
      <feColorMatrix
         in="SourceAlpha"
         type="matrix"
         values="0 0 0 0 0 0 0 0 0 0 0 0 0 0 0 0 0 0 127 0"
         result="hardAlpha"
         id="feColorMatrix16" />
      <feOffset
         dy="4"
         id="feOffset16" />
      <feGaussianBlur
         stdDeviation="2"
         id="feGaussianBlur16" />
      <feComposite
         in2="hardAlpha"
         operator="arithmetic"
         k2="-1"
         k3="1"
         id="feComposite16"
         k1="0"
         k4="0" />
      <feColorMatrix
         type="matrix"
         values="0 0 0 0 0.0666667 0 0 0 0 0.0705882 0 0 0 0 0.172549 0 0 0 0.56 0"
         id="feColorMatrix17" />
      <feBlend
         mode="normal"
         in2="shape"
         result="effect1_innerShadow_19_150"
         id="feBlend17" />
    </filter>
    <filter
       id="filter4_i_19_150"
       x="4.3603501"
       y="158.55299"
       width="103.942"
       height="39.043499"
       filterUnits="userSpaceOnUse"
       color-interpolation-filters="sRGB">
      <feFlood
         flood-opacity="0"
         result="BackgroundImageFix"
         id="feFlood17" />
      <feBlend
         mode="normal"
         in="SourceGraphic"
         in2="BackgroundImageFix"
         result="shape"
         id="feBlend18" />
      <feColorMatrix
         in="SourceAlpha"
         type="matrix"
         values="0 0 0 0 0 0 0 0 0 0 0 0 0 0 0 0 0 0 127 0"
         result="hardAlpha"
         id="feColorMatrix18" />
      <feOffset
         dy="4"
         id="feOffset18" />
      <feGaussianBlur
         stdDeviation="2"
         id="feGaussianBlur18" />
      <feComposite
         in2="hardAlpha"
         operator="arithmetic"
         k2="-1"
         k3="1"
         id="feComposite18"
         k1="0"
         k4="0" />
      <feColorMatrix
         type="matrix"
         values="0 0 0 0 0.0666667 0 0 0 0 0.0705882 0 0 0 0 0.172549 0 0 0 0.56 0"
         id="feColorMatrix19" />
      <feBlend
         mode="normal"
         in2="shape"
         result="effect1_innerShadow_19_150"
         id="feBlend19" />
    </filter>
    <filter
       id="filter5_i_19_150"
       x="52.599998"
       y="212.12"
       width="101.868"
       height="25.299999"
       filterUnits="userSpaceOnUse"
       color-interpolation-filters="sRGB">
      <feFlood
         flood-opacity="0"
         result="BackgroundImageFix"
         id="feFlood19" />
      <feBlend
         mode="normal"
         in="SourceGraphic"
         in2="BackgroundImageFix"
         result="shape"
         id="feBlend20" />
      <feColorMatrix
         in="SourceAlpha"
         type="matrix"
         values="0 0 0 0 0 0 0 0 0 0 0 0 0 0 0 0 0 0 127 0"
         result="hardAlpha"
         id="feColorMatrix20" />
      <feOffset
         dy="4"
         id="feOffset20" />
      <feGaussianBlur
         stdDeviation="2"
         id="feGaussianBlur20" />
      <feComposite
         in2="hardAlpha"
         operator="arithmetic"
         k2="-1"
         k3="1"
         id="feComposite20"
         k1="0"
         k4="0" />
      <feColorMatrix
         type="matrix"
         values="0 0 0 0 0.0666667 0 0 0 0 0.0705882 0 0 0 0 0.172549 0 0 0 0.23 0"
         id="feColorMatrix21" />
      <feBlend
         mode="normal"
         in2="shape"
         result="effect1_innerShadow_19_150"
         id="feBlend21" />
    </filter>
  </defs>
</svg>
